<?xml version="1.0" encoding="UTF-8" standalone="no"?>
<svg
   xmlns:dc="http://purl.org/dc/elements/1.1/"
   xmlns:cc="http://creativecommons.org/ns#"
   xmlns:rdf="http://www.w3.org/1999/02/22-rdf-syntax-ns#"
   xmlns:svg="http://www.w3.org/2000/svg"
   xmlns="http://www.w3.org/2000/svg"
   viewBox="0 0 236.35068 157.51334"
   height="127.51334"
   width="191.35068"
   xml:space="preserve"
   id="svg2"
   version="1.1"><metadata
     id="metadata8"><rdf:RDF><cc:Work
         rdf:about=""><dc:format>image/svg+xml</dc:format><dc:type
           rdf:resource="http://purl.org/dc/dcmitype/StillImage" /></cc:Work></rdf:RDF></metadata><defs
     id="defs6"><clipPath
       id="clipPath18"
       clipPathUnits="userSpaceOnUse"><path
         id="path16"
         d="M 0,118.135 H 177.263 V 0 H 0 Z" /></clipPath></defs><g
     transform="matrix(1.3333333,0,0,-1.3333333,0,157.51333)"
     id="g10"><g
       id="g12"><g
         clip-path="url(#clipPath18)"
         id="g14"><g
           transform="translate(173.7615,61.7964)"
           id="g20"><path
             id="path22"
             style="fill:#7050e5;fill-opacity:1;fill-rule:nonzero;stroke:none"
             d="m 0,0 -84.871,-47.856 v 12.305 l -3.175,1.779 L 0,14.041 Z m -149.28,-0.834 -0.001,0.001 -11.769,6.305 90.61,47.184 69.331,-35.24 -91.723,-48.6 z m 45.357,-41.772 -6.451,3.797 v 6.199 l 6.451,-3.798 z m -11.573,2.95 -1.188,0.634 0.41,15.414 1.188,-0.635 z m -2.672,1.427 -1.188,0.634 0.409,15.414 1.188,-0.634 z m -2.801,1.495 -1.188,0.633 0.41,15.414 1.188,-0.633 z m -2.8,1.495 -1.188,0.634 0.41,15.414 1.188,-0.634 z m -2.758,1.472 -1.188,0.634 0.41,15.414 1.188,-0.634 z m -24.202,16.534 c -1.136,0 -2.057,1.618 -2.057,3.613 0,1.996 0.921,3.615 2.057,3.615 1.135,0 2.056,-1.619 2.056,-3.615 0,-1.995 -0.921,-3.613 -2.056,-3.613 m -8.265,5.036 c -1.135,0 -2.056,1.618 -2.056,3.614 0,1.996 0.921,3.614 2.056,3.614 1.136,0 2.057,-1.618 2.057,-3.614 0,-1.996 -0.921,-3.614 -2.057,-3.614 m 88.08,68.536 -94.652,-48.734 -8.196,4.124 v -22.816 l 5.839,-3.283 v -0.061 l 74.41,-42.521 v -0.002 l 8.642,-4.842 v 9.74 L 3.501,-1.928 v 20.699 z" /></g><g
           transform="translate(46.0467,28.6636)"
           id="g24"><path
             id="path26"
             style="fill:#f9f9f9;fill-opacity:1;fill-rule:nonzero;stroke:none"
             d="M 0,0 1.188,-0.634 1.598,14.78 0.41,15.414 Z" /></g><g
           transform="translate(48.8045,27.1909)"
           id="g28"><path
             id="path30"
             style="fill:#f9f9f9;fill-opacity:1;fill-rule:nonzero;stroke:none"
             d="M 0,0 1.188,-0.634 1.598,14.78 0.41,15.414 Z" /></g><g
           transform="translate(51.6048,25.6958)"
           id="g32"><path
             id="path34"
             style="fill:#f9f9f9;fill-opacity:1;fill-rule:nonzero;stroke:none"
             d="M 0,0 1.188,-0.634 1.598,14.78 0.41,15.414 Z" /></g><g
           transform="translate(54.4051,24.2017)"
           id="g36"><path
             id="path38"
             style="fill:#f9f9f9;fill-opacity:1;fill-rule:nonzero;stroke:none"
             d="M 0,0 1.188,-0.635 1.598,14.779 0.41,15.414 Z" /></g><g
           transform="translate(57.0779,22.7739)"
           id="g40"><path
             id="path42"
             style="fill:#f9f9f9;fill-opacity:1;fill-rule:nonzero;stroke:none"
             d="M 0,0 1.188,-0.634 1.598,14.779 0.41,15.414 Z" /></g><g
           transform="translate(14.7679,56.8276)"
           id="g44"><path
             id="path46"
             style="fill:#f9f9f9;fill-opacity:1;fill-rule:nonzero;stroke:none"
             d="m 0,0 c -1.136,0 -2.056,-1.618 -2.056,-3.614 0,-1.996 0.92,-3.615 2.056,-3.615 1.136,0 2.057,1.619 2.057,3.615 C 2.057,-1.618 1.136,0 0,0" /></g><g
           transform="translate(23.0325,51.7915)"
           id="g48"><path
             id="path50"
             style="fill:#f9f9f9;fill-opacity:1;fill-rule:nonzero;stroke:none"
             d="m 0,0 c -1.136,0 -2.057,-1.619 -2.057,-3.615 0,-1.995 0.921,-3.614 2.057,-3.614 1.135,0 2.056,1.619 2.056,3.614 C 2.056,-1.619 1.135,0 0,0" /></g><g
           transform="translate(63.388,22.9878)"
           id="g52"><path
             id="path54"
             style="fill:#ffffff;fill-opacity:1;fill-rule:nonzero;stroke:none"
             d="M 0,0 6.451,-3.798 V 2.4 L 0,6.198 Z" /></g></g></g></g></svg>