<?xml version="1.0" encoding="UTF-8" standalone="no"?>
<svg
   xmlns:dc="http://purl.org/dc/elements/1.1/"
   xmlns:cc="http://creativecommons.org/ns#"
   xmlns:rdf="http://www.w3.org/1999/02/22-rdf-syntax-ns#"
   xmlns:svg="http://www.w3.org/2000/svg"
   xmlns="http://www.w3.org/2000/svg"
   viewBox="0 0 145.68401 153.39732"
   height="153.39732"
   width="145.68401"
   xml:space="preserve"
   id="svg2"
   version="1.1"><metadata
     id="metadata8"><rdf:RDF><cc:Work
         rdf:about=""><dc:format>image/svg+xml</dc:format><dc:type
           rdf:resource="http://purl.org/dc/dcmitype/StillImage" /></cc:Work></rdf:RDF></metadata><defs
     id="defs6"><clipPath
       id="clipPath18"
       clipPathUnits="userSpaceOnUse"><path
         id="path16"
         d="M 0,115.048 H 109.263 V 0 H 0 Z" /></clipPath></defs><g
     transform="matrix(1.3333333,0,0,-1.3333333,0,153.39733)"
     id="g10"><g
       id="g12"><g
         clip-path="url(#clipPath18)"
         id="g14"><g
           transform="translate(61.6357,108.8018)"
           id="g20"><path
             id="path22"
             style="fill:#6f50e4;fill-opacity:1;fill-rule:nonzero;stroke:none"
             d="m 0,0 v -3.67 c 24.876,-3.43 43.987,-25.11 43.987,-50.507 0,-28.114 -22.87,-50.985 -50.991,-50.985 -28.121,0 -50.992,22.871 -50.992,50.985 0,25.411 19.104,47.072 43.988,50.504 v 3.674 c -26.899,-3.464 -47.628,-26.791 -47.628,-54.178 0,-30.117 24.508,-54.625 54.632,-54.625 30.123,0 54.631,24.508 54.631,54.625 C 47.627,-26.806 26.89,-3.461 0,0" /></g><g
           transform="translate(55.3828,31.1621)"
           id="g24"><path
             id="path26"
             style="fill:#6f50e4;fill-opacity:1;fill-rule:nonzero;stroke:none"
             d="m 0,0 c -12.82,-0.299 -23.494,9.896 -23.793,22.729 -0.299,12.827 9.889,23.5 22.709,23.799 10.48,0.244 19.653,-6.467 22.72,-16.259 H 25.41 C 22.229,42.18 11.338,50.458 -1.169,50.167 -15.991,49.821 -27.777,37.474 -27.432,22.645 -27.086,7.809 -14.737,-3.983 0.084,-3.638 12.16,-3.356 22.367,4.849 25.409,16.261 H 21.631 C 18.699,6.887 10.104,0.235 0,0" /></g><g
           transform="translate(23.9946,35.4502)"
           id="g28"><path
             id="path30"
             style="fill:#ff8b00;fill-opacity:1;fill-rule:nonzero;stroke:none"
             d="m 0,0 -4.638,-3.151 c -4.191,6.636 -6.462,14.399 -6.462,22.326 0,23.021 18.722,41.749 41.737,41.749 0.584,0 1.168,-0.014 1.75,-0.038 v 0.038 3.601 13.323 h -3.5 V 64.52 C 4.678,63.594 -14.738,43.612 -14.738,19.175 c 0,-9.841 3.217,-19.448 9.09,-27.272 l 7.652,5.212 C 1.632,-2.4 1.27,-1.905 0.918,-1.398 0.6,-0.937 0.295,-0.471 0,0" /></g><g
           transform="translate(73.1454,27.9092)"
           id="g32"><path
             id="path34"
             style="fill:#ff8b00;fill-opacity:1;fill-rule:nonzero;stroke:none"
             d="m 0,0 c -14.23,-9.853 -33.619,-6.764 -44.131,6.711 l -3.016,-2.055 c 11.652,-15.139 33.334,-18.646 49.219,-7.648 6.647,4.601 11.44,11.097 13.872,18.785 l -3.462,1.09 C 10.296,9.979 5.979,4.141 0,0" /></g><g
           transform="translate(27.9047,36.124)"
           id="g36"><path
             id="path38"
             style="fill:#ff8b00;fill-opacity:1;fill-rule:nonzero;stroke:none"
             d="M 0,0 C -0.313,0.452 -0.593,0.92 -0.881,1.384 L -3.91,-0.674 c 0.295,-0.471 0.599,-0.937 0.918,-1.398 0.351,-0.507 0.714,-1.002 1.086,-1.487 L 1.11,-1.504 C 0.729,-1.015 0.357,-0.516 0,0" /></g><g
           transform="translate(86.6181,48.8213)"
           id="g40"><path
             id="path42"
             style="fill:#ff8b00;fill-opacity:1;fill-rule:nonzero;stroke:none"
             d="m 0,0 c -3.208,-17.646 -20.158,-29.389 -37.798,-26.182 -6.785,1.234 -12.828,4.497 -17.56,9.435 l -3.061,-2.086 c 5.33,-5.741 12.22,-9.521 19.97,-10.929 19.611,-3.565 38.464,9.494 42.03,29.112 0.273,1.502 0.451,3.005 0.536,4.505 H 0.444 C 0.363,2.572 0.234,1.286 0,0" /></g><g
           transform="translate(64.8105,44.6475)"
           id="g44"><path
             id="path46"
             style="fill:#ff8b00;fill-opacity:1;fill-rule:nonzero;stroke:none"
             d="m 0,0 c -5.471,-5.472 -14.372,-5.477 -19.838,-0.01 -5.471,5.471 -5.471,14.376 0,19.848 2.185,2.184 4.982,3.517 7.909,3.94 v 3.653 c -3.875,-0.44 -7.601,-2.138 -10.483,-5.02 -6.892,-6.892 -6.892,-18.102 0,-24.994 6.883,-6.884 18.093,-6.884 24.985,0.009 2.911,2.91 4.614,6.684 5.031,10.603 H 3.962 C 3.559,5.059 2.216,2.216 0,0" /></g><g
           transform="translate(72.4501,56.1768)"
           id="g48"><path
             id="path50"
             style="fill:#ff8b00;fill-opacity:1;fill-rule:nonzero;stroke:none"
             d="m 0,0 h -3.642 c 0.133,-1.167 0.121,-2.343 -0.036,-3.5 h 3.643 C 0.089,-2.34 0.105,-1.168 0,0" /></g><g
           transform="translate(90.7568,56.1768)"
           id="g52"><path
             id="path54"
             style="fill:#ff8b00;fill-opacity:1;fill-rule:nonzero;stroke:none"
             d="M 0,0 H -0.016 C 0.026,-0.98 0.035,-1.966 -0.002,-2.958 0.04,-1.969 0.04,-0.982 0,0" /></g><g
           transform="translate(87.1269,53.7881)"
           id="g56"><path
             id="path58"
             style="fill:#ff8b00;fill-opacity:1;fill-rule:nonzero;stroke:none"
             d="m 0,0 c -0.011,-0.369 -0.041,-0.74 -0.064,-1.111 h 3.672 c 0.005,0.083 0.005,0.166 0.009,0.25 l -3.622,0.16 c 0.01,0.235 0,0.467 0.005,0.701" /></g><g
           transform="translate(87.101,56.1768)"
           id="g60"><path
             id="path62"
             style="fill:#ff8b00;fill-opacity:1;fill-rule:nonzero;stroke:none"
             d="M 0,0 H -0.004 C -0.003,-0.034 0,-0.068 0.002,-0.103 0.001,-0.068 0.001,-0.034 0,0" /></g><g
           transform="translate(90.7529,52.9258)"
           id="g64"><path
             id="path66"
             style="fill:#ff8b00;fill-opacity:1;fill-rule:nonzero;stroke:none"
             d="M 0,0 C 0.004,0.099 -0.001,0.195 0.002,0.293 -0.002,0.195 -0.004,0.099 -0.009,0.001 Z" /></g><g
           transform="translate(90.7407,56.1768)"
           id="g68"><path
             id="path70"
             style="fill:#ff8b00;fill-opacity:1;fill-rule:nonzero;stroke:none"
             d="m 0,0 h -3.64 c 0.002,-0.034 0.001,-0.068 0.003,-0.103 0.017,-0.423 0.03,-0.847 0.031,-1.272 0.002,-0.337 0,-0.675 -0.008,-1.014 -0.005,-0.234 0.006,-0.465 -0.005,-0.701 L 0.003,-3.25 C 0.008,-3.152 0.01,-3.056 0.014,-2.958 0.051,-1.966 0.042,-0.98 0,0" /></g><g
           transform="translate(56.3813,68.4922)"
           id="g72"><path
             id="path74"
             style="fill:#ff8b00;fill-opacity:1;fill-rule:nonzero;stroke:none"
             d="M 0,0 V 3.645 C -1.168,3.742 -2.34,3.718 -3.5,3.586 V -0.066 C -2.343,0.101 -1.167,0.123 0,0" /></g><g
           transform="translate(54.6313,50.8604)"
           id="g76"><path
             id="path78"
             style="fill:#6f50e4;fill-opacity:1;fill-rule:nonzero;stroke:none"
             d="M 0,0 C -2.081,0 -3.77,1.684 -3.77,3.752 -3.77,5.84 -2.081,7.535 0,7.535 2.088,7.535 3.784,5.84 3.784,3.752 3.784,1.684 2.088,0 0,0 m 0,11.174 c -4.084,0 -7.41,-3.332 -7.41,-7.422 0,-4.072 3.326,-7.391 7.41,-7.391 4.091,0 7.423,3.319 7.423,7.391 0,4.09 -3.332,7.422 -7.423,7.422" /></g><g
           transform="translate(56.3813,54.7354)"
           id="g80"><path
             id="path82"
             style="fill:#ff8b00;fill-opacity:1;fill-rule:nonzero;stroke:none"
             d="m 0,0 c 0,-0.967 -0.784,-1.75 -1.75,-1.75 -0.966,0 -1.75,0.783 -1.75,1.75 0,0.967 0.784,1.75 1.75,1.75 C -0.784,1.75 0,0.967 0,0" /></g><g
           transform="translate(56.3813,113.2979)"
           id="g84"><path
             id="path86"
             style="fill:#ff8b00;fill-opacity:1;fill-rule:nonzero;stroke:none"
             d="m 0,0 c 0,-0.967 -0.784,-1.75 -1.75,-1.75 -0.966,0 -1.75,0.783 -1.75,1.75 0,0.967 0.784,1.75 1.75,1.75 C -0.784,1.75 0,0.967 0,0" /></g><g
           transform="translate(52.8813,68.4258)"
           id="g88"><path
             id="path90"
             style="fill:#ff8b00;fill-opacity:1;fill-rule:nonzero;stroke:none"
             d="M 0,0 V -13.69 H 3.5 V 0.066 C 2.333,0.189 1.157,0.167 0,0" /></g><g
           transform="translate(87.1035,56.0742)"
           id="g92"><path
             id="path94"
             style="fill:#ff8b00;fill-opacity:1;fill-rule:nonzero;stroke:none"
             d="m 0,0 c -0.002,0.034 -0.005,0.068 -0.007,0.103 h -14.764 c 0.106,-1.165 0.094,-2.337 -0.029,-3.5 h 14.759 c 0.023,0.371 0.054,0.742 0.064,1.111 0.008,0.339 0.011,0.677 0.008,1.014 C 0.03,-0.848 0.018,-0.424 0,0" /></g><g
           transform="translate(64.6752,44.6406)"
           id="g96"><path
             id="path98"
             style="fill:#ff8b00;fill-opacity:1;fill-rule:nonzero;stroke:none"
             d="m 0,0 c -5.471,-5.472 -14.376,-5.472 -19.847,0 -2.185,2.185 -3.518,4.981 -3.941,7.909 h -3.652 c 0.439,-3.875 2.138,-7.601 5.019,-10.482 6.892,-6.893 18.103,-6.893 24.995,0 2.964,2.963 4.643,6.73 5.054,10.609 H 3.957 C 3.563,5.095 2.254,2.254 0,0" /></g><g
           transform="translate(72.3325,56.1768)"
           id="g100"><path
             id="path102"
             style="fill:#ff8b00;fill-opacity:1;fill-rule:nonzero;stroke:none"
             d="m 0,0 h -3.665 c 0.135,-1.164 0.12,-2.339 -0.036,-3.5 h 3.672 C 0.094,-2.337 0.106,-1.165 0,0" /></g><g
           transform="translate(67.2397,67.0518)"
           id="g104"><path
             id="path106"
             style="fill:#6f50e4;fill-opacity:1;fill-rule:nonzero;stroke:none"
             d="m 0,0 c -1.659,1.66 -3.604,2.912 -5.692,3.771 v -4.014 c 1.125,-0.62 2.18,-1.392 3.118,-2.33 0.928,-0.928 1.689,-1.956 2.3,-3.048 H 3.767 C 2.907,-3.578 1.662,-1.661 0,0" /></g><g
           transform="translate(99.9311,57.501)"
           id="g108"><path
             id="path110"
             style="fill:#6f50e4;fill-opacity:1;fill-rule:nonzero;stroke:none"
             d="m 0,0 c -0.001,0.019 -0.002,0.037 -0.003,0.056 -0.045,0.7 -0.105,1.398 -0.182,2.096 -0.005,0.045 -0.01,0.09 -0.016,0.135 -0.077,0.686 -0.17,1.369 -0.279,2.053 -0.006,0.041 -0.013,0.084 -0.02,0.126 -0.114,0.704 -0.245,1.405 -0.393,2.104 -0.001,0.006 -0.002,0.012 -0.003,0.018 -1.733,8.203 -5.738,16.021 -12.05,22.42 -6.849,6.945 -15.783,11.497 -25.349,12.976 v -3.678 c 2.146,-0.364 4.258,-0.89 6.312,-1.582 l -0.006,-0.019 c 9.099,-3.045 16.935,-9.225 22.061,-17.391 9.539,-15.195 8.053,-34.222 -2.294,-47.675 -0.071,-0.092 -0.145,-0.185 -0.217,-0.277 -0.322,-0.411 -0.653,-0.817 -0.992,-1.217 -0.159,-0.188 -0.323,-0.374 -0.487,-0.56 -0.272,-0.31 -0.546,-0.617 -0.828,-0.919 -0.234,-0.251 -0.475,-0.498 -0.716,-0.744 -0.248,-0.253 -0.496,-0.507 -0.752,-0.755 -0.191,-0.185 -0.385,-0.366 -0.579,-0.547 -0.278,-0.26 -0.56,-0.516 -0.846,-0.768 -0.215,-0.19 -0.431,-0.378 -0.651,-0.564 -0.278,-0.235 -0.562,-0.467 -0.847,-0.696 -0.231,-0.185 -0.46,-0.371 -0.695,-0.551 -0.293,-0.226 -0.595,-0.443 -0.896,-0.662 -0.233,-0.17 -0.464,-0.345 -0.701,-0.51 -0.495,-0.344 -1,-0.679 -1.514,-1.005 -1.977,-1.25 -4.055,-2.331 -6.209,-3.235 -0.125,-0.052 -0.251,-0.102 -0.377,-0.152 -0.386,-0.158 -0.774,-0.311 -1.164,-0.456 -0.212,-0.08 -0.426,-0.155 -0.64,-0.23 -0.301,-0.107 -0.604,-0.213 -0.908,-0.312 -0.278,-0.092 -0.557,-0.18 -0.837,-0.265 -0.237,-0.073 -0.475,-0.144 -0.713,-0.212 -0.331,-0.096 -0.663,-0.187 -0.997,-0.273 -0.185,-0.049 -0.372,-0.095 -0.559,-0.141 -0.373,-0.092 -0.748,-0.18 -1.123,-0.262 -0.147,-0.031 -0.293,-0.06 -0.44,-0.09 -0.409,-0.084 -0.819,-0.166 -1.23,-0.237 -0.109,-0.019 -0.217,-0.034 -0.326,-0.053 -0.444,-0.073 -0.888,-0.143 -1.333,-0.203 -0.064,-0.009 -0.128,-0.014 -0.192,-0.022 -2.629,-0.339 -5.292,-0.432 -7.953,-0.266 l -0.707,-3.594 c 2.569,-0.189 5.143,-0.15 7.692,0.096 v -0.004 c 0.1,0.01 0.199,0.026 0.298,0.035 0.473,0.049 0.945,0.103 1.416,0.166 0.205,0.028 0.408,0.059 0.612,0.089 0.411,0.062 0.821,0.126 1.231,0.198 0.221,0.039 0.442,0.081 0.662,0.123 0.403,0.079 0.804,0.161 1.205,0.248 0.207,0.047 0.415,0.093 0.621,0.142 0.428,0.101 0.853,0.208 1.278,0.32 0.17,0.045 0.34,0.089 0.509,0.137 0.481,0.134 0.959,0.276 1.436,0.427 0.108,0.033 0.216,0.065 0.323,0.099 0.569,0.184 1.135,0.378 1.697,0.584 0.014,0.005 0.028,0.01 0.042,0.015 2.945,1.08 5.788,2.462 8.469,4.146 0.919,0.576 1.799,1.189 2.661,1.82 0.291,0.213 0.583,0.424 0.87,0.643 0.269,0.207 0.532,0.419 0.796,0.63 0.298,0.241 0.595,0.483 0.888,0.73 0.243,0.206 0.483,0.413 0.72,0.624 0.309,0.272 0.614,0.551 0.915,0.832 0.211,0.196 0.422,0.393 0.628,0.592 0.095,0.092 0.194,0.179 0.288,0.272 0.184,0.182 0.355,0.371 0.535,0.556 0.259,0.265 0.519,0.529 0.771,0.8 0.311,0.333 0.611,0.671 0.91,1.01 0.174,0.199 0.349,0.395 0.519,0.596 0.373,0.44 0.734,0.886 1.088,1.336 0.075,0.097 0.152,0.192 0.227,0.289 C -2.448,-21.666 0.671,-10.741 0,0" /></g><g
           transform="translate(87.7026,69.1963)"
           id="g112"><path
             id="path114"
             style="fill:#6f50e4;fill-opacity:1;fill-rule:nonzero;stroke:none"
             d="M 0,0 C -8.041,18.23 -29.42,26.521 -47.657,18.478 -54.919,15.273 -60.772,9.935 -64.625,3.021 L -61.2,1.664 c 3.47,6.01 8.632,10.669 15.012,13.483 16.404,7.236 35.625,-0.218 42.858,-16.616 0.903,-2.047 1.56,-4.156 2.024,-6.297 H 2.428 C 1.917,-5.121 1.111,-2.52 0,0" /></g><g
           transform="translate(55.4028,9.2627)"
           id="g116"><path
             id="path118"
             style="fill:#6f50e4;fill-opacity:1;fill-rule:nonzero;stroke:none"
             d="M 0,0 C 0.371,0.006 0.741,0.012 1.11,0.027 1.565,0.047 2.017,0.076 2.468,0.108 2.731,0.127 2.994,0.145 3.256,0.168 3.831,0.219 4.4,0.283 4.969,0.355 5.09,0.371 5.212,0.386 5.333,0.402 16.508,1.912 26.4,7.5 33.465,15.618 c 0.013,0.015 0.024,0.028 0.036,0.042 0.46,0.529 0.908,1.069 1.343,1.62 0.028,0.036 0.056,0.072 0.084,0.107 0.426,0.543 0.841,1.095 1.242,1.658 0.025,0.034 0.05,0.069 0.075,0.103 0.413,0.582 0.812,1.174 1.198,1.775 0.004,0.005 0.007,0.011 0.01,0.015 4.526,7.057 7.165,15.436 7.165,24.424 0,10.487 -3.653,20.699 -10.278,28.762 L 31.539,71.82 c 1.929,-2.351 3.582,-4.902 4.942,-7.597 l -0.017,-0.008 c 4.34,-8.559 5.58,-18.46 3.495,-27.874 C 36.08,18.824 21.661,6.32 4.848,4.008 4.732,3.992 4.615,3.979 4.499,3.964 3.98,3.896 3.46,3.841 2.938,3.793 2.692,3.771 2.445,3.754 2.198,3.736 1.787,3.707 1.375,3.682 0.963,3.664 0.62,3.649 0.275,3.643 -0.069,3.638 -0.424,3.631 -0.778,3.625 -1.134,3.627 -1.4,3.63 -1.666,3.637 -1.931,3.645 c -0.38,0.01 -0.76,0.025 -1.141,0.046 -0.287,0.016 -0.574,0.035 -0.86,0.056 -0.363,0.027 -0.727,0.063 -1.091,0.1 -0.295,0.03 -0.589,0.059 -0.882,0.095 -0.367,0.046 -0.736,0.102 -1.104,0.158 -0.285,0.043 -0.572,0.081 -0.856,0.129 -0.594,0.103 -1.189,0.219 -1.784,0.348 -2.286,0.498 -4.524,1.188 -6.692,2.057 -0.126,0.051 -0.25,0.104 -0.376,0.156 -0.385,0.159 -0.768,0.322 -1.149,0.492 -0.207,0.093 -0.411,0.19 -0.616,0.286 -0.29,0.135 -0.58,0.274 -0.867,0.415 -0.262,0.13 -0.522,0.264 -0.781,0.4 -0.22,0.114 -0.439,0.231 -0.657,0.349 -0.302,0.165 -0.603,0.333 -0.901,0.506 -0.166,0.096 -0.332,0.195 -0.497,0.293 -0.331,0.197 -0.659,0.397 -0.984,0.602 -0.126,0.08 -0.251,0.163 -0.376,0.244 -0.351,0.228 -0.699,0.458 -1.042,0.695 -0.091,0.063 -0.18,0.129 -0.27,0.192 -0.367,0.259 -0.732,0.521 -1.092,0.791 -0.051,0.039 -0.101,0.08 -0.152,0.119 -1.619,1.232 -3.149,2.584 -4.577,4.043 l -3.025,-2.103 c 1.34,-1.405 2.768,-2.719 4.269,-3.94 l -0.002,-0.002 c 0.078,-0.064 0.159,-0.122 0.237,-0.186 0.371,-0.297 0.745,-0.59 1.125,-0.875 0.165,-0.125 0.332,-0.245 0.498,-0.366 0.336,-0.245 0.674,-0.487 1.016,-0.724 0.185,-0.126 0.372,-0.251 0.558,-0.376 0.341,-0.229 0.685,-0.452 1.032,-0.67 0.179,-0.113 0.36,-0.225 0.542,-0.336 0.374,-0.229 0.753,-0.452 1.134,-0.668 0.152,-0.088 0.305,-0.176 0.458,-0.26 0.436,-0.243 0.878,-0.478 1.322,-0.705 0.1,-0.053 0.2,-0.106 0.301,-0.156 0.534,-0.27 1.072,-0.528 1.617,-0.776 0.013,-0.007 0.027,-0.013 0.041,-0.019 2.855,-1.299 5.849,-2.312 8.94,-2.996 1.059,-0.235 2.117,-0.415 3.174,-0.573 0.356,-0.052 0.712,-0.108 1.07,-0.152 0.337,-0.043 0.673,-0.076 1.01,-0.109 0.381,-0.039 0.762,-0.077 1.144,-0.106 0.318,-0.023 0.634,-0.044 0.951,-0.061 0.412,-0.023 0.824,-0.039 1.236,-0.05 0.288,-0.008 0.575,-0.017 0.863,-0.02 0.132,-10e-4 0.263,-0.008 0.396,-0.008 0.258,0 0.513,0.015 0.771,0.02" /></g><g
           transform="translate(22.6601,60.4473)"
           id="g120"><path
             id="path122"
             style="fill:#6f50e4;fill-opacity:1;fill-rule:nonzero;stroke:none"
             d="m 0,0 c 3.206,17.64 20.156,29.376 37.789,26.17 7.072,-1.285 13.382,-4.78 18.249,-10.11 l 2.681,2.454 c -5.411,5.92 -12.422,9.809 -20.279,11.237 -19.604,3.563 -38.457,-9.49 -42.021,-29.1 -1.309,-7.2 -0.437,-14.423 2.498,-21.045 l 3.071,2.134 C -0.422,-12.485 -1.134,-6.235 0,0" /></g></g></g></g></svg>