<?xml version="1.0" encoding="UTF-8" standalone="no"?>
<svg
   xmlns:dc="http://purl.org/dc/elements/1.1/"
   xmlns:cc="http://creativecommons.org/ns#"
   xmlns:rdf="http://www.w3.org/1999/02/22-rdf-syntax-ns#"
   xmlns:svg="http://www.w3.org/2000/svg"
   xmlns="http://www.w3.org/2000/svg"
   viewBox="0 0 333.33334 270.90268"
   height="270.90268"
   width="333.33334"
   xml:space="preserve"
   id="svg2"
   version="1.1"><metadata
     id="metadata8"><rdf:RDF><cc:Work
         rdf:about=""><dc:format>image/svg+xml</dc:format><dc:type
           rdf:resource="http://purl.org/dc/dcmitype/StillImage" /></cc:Work></rdf:RDF></metadata><defs
     id="defs6"><clipPath
       id="clipPath18"
       clipPathUnits="userSpaceOnUse"><path
         id="path16"
         d="M 0,203.177 H 250 V 0 H 0 Z" /></clipPath></defs><g
     transform="matrix(1.3333333,0,0,-1.3333333,0,270.90267)"
     id="g10"><g
       id="g12"><g
         clip-path="url(#clipPath18)"
         id="g14"><g
           transform="translate(243.0986,199.4222)"
           id="g20"><path
             id="path22"
             style="fill:#ffffff;fill-opacity:1;fill-rule:nonzero;stroke:none"
             d="m 0,0 c -9.913,-5.875 -20.886,-10.149 -32.568,-12.45 -9.36,9.97 -22.69,16.205 -37.44,16.205 -28.328,0 -51.299,-22.971 -51.299,-51.287 0,-4.026 0.451,-7.94 1.331,-11.695 -42.628,2.143 -80.428,22.554 -105.722,53.588 -4.409,-7.578 -6.947,-16.385 -6.947,-25.779 0,-17.795 9.056,-33.504 22.825,-42.694 -8.413,0.258 -16.318,2.57 -23.231,6.416 -0.011,-0.214 -0.011,-0.429 -0.011,-0.654 0,-24.843 17.682,-45.581 41.15,-50.284 -4.308,-1.172 -8.841,-1.804 -13.522,-1.804 -3.304,0 -6.518,0.326 -9.641,0.925 6.529,-20.378 25.463,-35.207 47.916,-35.625 -17.559,-13.758 -39.673,-21.956 -63.704,-21.956 -4.139,0 -8.221,0.237 -12.236,0.711 22.701,-14.548 49.653,-23.039 78.623,-23.039 94.344,0 145.936,78.161 145.936,145.935 0,2.221 -0.045,4.432 -0.147,6.632 10.015,7.239 18.72,16.272 25.588,26.557 -9.19,-4.083 -19.081,-6.835 -29.455,-8.075 C -11.965,-22.024 -3.834,-11.977 0,0" /></g></g></g></g></svg>